HIERARCHY
ROOT hip
{
  OFFSET 0 0 0
  CHANNELS 6 Xposition Yposition Zposition Zrotation Yrotation Xrotation
  JOINT abdomen
  {
    OFFSET 0 20.6881 -0.73152
    CHANNELS 3 Zrotation Xrotation Yrotation
    JOINT chest
    {
      OFFSET 0 11.7043 -0.48768
      CHANNELS 3 Zrotation Xrotation Yrotation
      JOINT neck
      {
        OFFSET 0 22.1894 -2.19456
        CHANNELS 3 Zrotation Xrotation Yrotation
        JOINT head
        {
          OFFSET -0.24384 7.07133 1.2192
          CHANNELS 3 Zrotation Xrotation Yrotation
          JOINT leftEye
          {
            OFFSET 4.14528 8.04674 8.04672
            CHANNELS 3 Zrotation Xrotation Yrotation
            End Site
            {
              OFFSET 1 0 0
            }
          }
          JOINT rightEye
          {
            OFFSET -3.6576 8.04674 8.04672
            CHANNELS 3 Zrotation Xrotation Yrotation
            End Site
            {
              OFFSET 1 0 0
            }
          }
        }
      }
      JOINT rCollar
      {
        OFFSET -2.68224 19.2634 -4.8768
        CHANNELS 3 Zrotation Xrotation Yrotation
        JOINT rShldr
        {
          OFFSET -8.77824 -1.95073 1.46304
          CHANNELS 3 Zrotation Xrotation Yrotation
          JOINT rForeArm
          {
            OFFSET -28.1742 -1.7115 0.48768
            CHANNELS 3 Zrotation Xrotation Yrotation
            JOINT rHand
            {
              OFFSET -22.5879 0.773209 7.07136
              CHANNELS 3 Zrotation Xrotation Yrotation
              JOINT rThumb1
              {
                OFFSET -1.2192 -0.487915 3.41376
                CHANNELS 3 Zrotation Xrotation Yrotation
                JOINT rThumb2
                {
                  OFFSET -3.37035 -0.52449 3.41376
                  CHANNELS 3 Zrotation Xrotation Yrotation
                  End Site
                  {
                    OFFSET -1.78271 -1.18214 1.43049
                  }
                }
              }
              JOINT rIndex1
              {
                OFFSET -7.75947 0.938293 5.60832
                CHANNELS 3 Zrotation Xrotation Yrotation
                JOINT rIndex2
                {
                  OFFSET -2.54057 -0.884171 1.56538
                  CHANNELS 3 Zrotation Xrotation Yrotation
                  End Site
                  {
                    OFFSET -1.62519 -0.234802 1.16502
                  }
                }
              }
              JOINT rMid1
              {
                OFFSET -8.24714 1.18213 3.41376
                CHANNELS 3 Zrotation Xrotation Yrotation
                JOINT rMid2
                {
                  OFFSET -3.10165 -0.590103 1.0647
                  CHANNELS 3 Zrotation Xrotation Yrotation
                  End Site
                  {
                    OFFSET -2.48547 -0.328903 0.83742
                  }
                }
              }
              JOINT rRing1
              {
                OFFSET -8.82822 0.546677 1.51678
                CHANNELS 3 Zrotation Xrotation Yrotation
                JOINT rRing2
                {
                  OFFSET -2.60934 -0.819778 -0.0198488
                  CHANNELS 3 Zrotation Xrotation Yrotation
                  End Site
                  {
                    OFFSET -2.33842 -0.294052 0.168128
                  }
                }
              }
              JOINT rPinky1
              {
                OFFSET -8.27202 -0.0477905 -0.4584
                CHANNELS 3 Zrotation Xrotation Yrotation
                JOINT rPinky2
                {
                  OFFSET -1.82734 -0.647385 -0.700984
                  CHANNELS 3 Zrotation Xrotation Yrotation
                  End Site
                  {
                    OFFSET -1.69225 -0.51767 -0.607171
                  }
                }
              }
            }
          }
        }
      }
      JOINT lCollar
      {
        OFFSET 2.68224 19.2634 -4.8768
        CHANNELS 3 Zrotation Xrotation Yrotation
        JOINT lShldr
        {
          OFFSET 8.77824 -1.95073 1.46304
          CHANNELS 3 Zrotation Xrotation Yrotation
          JOINT lForeArm
          {
            OFFSET 28.1742 -1.7115 0.48768
            CHANNELS 3 Zrotation Xrotation Yrotation
            JOINT lHand
            {
              OFFSET 22.5879 0.773209 7.07136
              CHANNELS 3 Zrotation Xrotation Yrotation
              JOINT lThumb1
              {
                OFFSET 1.2192 -0.487915 3.41376
                CHANNELS 3 Zrotation Xrotation Yrotation
                JOINT lThumb2
                {
                  OFFSET 3.37035 -0.52449 3.41376
                  CHANNELS 3 Zrotation Xrotation Yrotation
                  End Site
                  {
                    OFFSET 1.78271 -1.18214 1.43049
                  }
                }
              }
              JOINT lIndex1
              {
                OFFSET 7.75947 0.938293 5.60832
                CHANNELS 3 Zrotation Xrotation Yrotation
                JOINT lIndex2
                {
                  OFFSET 2.54057 -0.884171 1.56538
                  CHANNELS 3 Zrotation Xrotation Yrotation
                  End Site
                  {
                    OFFSET 1.62519 -0.234802 1.16502
                  }
                }
              }
              JOINT lMid1
              {
                OFFSET 8.24714 1.18213 3.41376
                CHANNELS 3 Zrotation Xrotation Yrotation
                JOINT lMid2
                {
                  OFFSET 3.10165 -0.590103 1.0647
                  CHANNELS 3 Zrotation Xrotation Yrotation
                  End Site
                  {
                    OFFSET 2.48547 -0.328903 0.83742
                  }
                }
              }
              JOINT lRing1
              {
                OFFSET 8.82822 0.546677 1.51678
                CHANNELS 3 Zrotation Xrotation Yrotation
                JOINT lRing2
                {
                  OFFSET 2.60934 -0.819778 -0.0198488
                  CHANNELS 3 Zrotation Xrotation Yrotation
                  End Site
                  {
                    OFFSET 2.33842 -0.294052 0.168128
                  }
                }
              }
              JOINT lPinky1
              {
                OFFSET 8.27202 -0.0477905 -0.4584
                CHANNELS 3 Zrotation Xrotation Yrotation
                JOINT lPinky2
                {
                  OFFSET 1.82734 -0.647385 -0.700984
                  CHANNELS 3 Zrotation Xrotation Yrotation
                  End Site
                  {
                    OFFSET 1.69225 -0.51767 -0.607171
                  }
                }
              }
            }
          }
        }
      }
    }
  }
  JOINT rButtock
  {
    OFFSET -8.77824 4.35084 1.2192
    CHANNELS 3 Zrotation Xrotation Yrotation
    JOINT rThigh
    {
      OFFSET 0 -1.70687 -2.19456
      CHANNELS 3 Zrotation Xrotation Yrotation
      JOINT rShin
      {
        OFFSET 0 -36.8199 0.73152
        CHANNELS 3 Zrotation Xrotation Yrotation
        JOINT rFoot
        {
          OFFSET 0.73152 -45.1104 -5.12064
          CHANNELS 3 Zrotation Xrotation Yrotation
          End Site
          {
            OFFSET -1.1221 -3.69964 12.103
          }
        }
      }
    }
  }
  JOINT lButtock
  {
    OFFSET 8.77824 4.35084 1.2192
    CHANNELS 3 Zrotation Xrotation Yrotation
    JOINT lThigh
    {
      OFFSET 0 -1.70687 -2.19456
      CHANNELS 3 Zrotation Xrotation Yrotation
      JOINT lShin
      {
        OFFSET 0 -36.8199 0.73152
        CHANNELS 3 Zrotation Xrotation Yrotation
        JOINT lFoot
        {
          OFFSET -0.73152 -45.1104 -5.12064
          CHANNELS 3 Zrotation Xrotation Yrotation
          End Site
          {
            OFFSET 1.1221 -3.69964 12.103
          }
        }
      }
    }
  }
}
MOTION
Frames:	4
Frame Time:	0.03333
-84.7761 63.815599999999996 -69.4972 178.48866 2.81467 -174.604477 0.431004 -4.146395 37.043883 -3.170243 -2.580143 -19.976815 1.88256 12.552311 -154.553674 -1.348733 19.407765 -162.502998 -15.607497 -1.664315 12.099571 15.22351 -1.77073 -13.192723 -157.849674 -4.377296 163.312871 -6.69214 15.78538 1.797385 179.379864 -20.781881 -61.703844 -14.694153 18.309479 -2.736912 179.756647 -10.520852 90.224313 104.055363 -82.482734 75.466066 90.197934 -68.701719 56.827617 -164.419124 -78.544623 131.272688 -49.481279 47.009385 32.457234 171.026874 -40.283696 111.012895 6.944891 -5.331697 -0.643694 6.334351 -36.605547 6.691333 -46.681359 -57.57976 -48.561386 -143.145721 -5.196097 -130.903174 155.316689 -3.400386 -160.412282 -13.538058 38.357839 2.476205 179.1938 41.300436 146.993987 10.120588 21.35191 -1.290746 173.203344 -16.024769 -85.103988 -30.514904 -68.28604 -40.414736 129.306544 -22.098957 -131.83655 109.022834 -75.291921 -173.933333 150.815508 39.125123 -127.303433 146.369395 31.533762 -106.310531 64.616972 -75.472164 100.337412 -22.287175 2.099542 -11.590662 -5.590954 29.877214 -4.768859 151.511615 -13.634923 134.592416 2.753138 7.21083 -3.862461 -17.495952 -39.403849 -180.0 -65.648639 -56.138973 -151.558201 -115.107661 -45.256109 160.708084 90.422339 41.704409 53.074723 -102.088445 12.614868 -133.567798 -64.7903 -20.645313 -114.38001 -86.601087 -21.483816 -175.445905
-87.9058 62.9443 -71.6523 177.800637 2.787749 -174.217289 -1.247304 -7.052166 86.554869 -1.914953 -0.251224 -68.092758 14.245967 -2.291645 66.785818 -3.103485 2.46215 -25.486038 -17.729726 -1.826966 11.674188 16.810332 -2.085856 -14.047348 -157.075666 -3.468365 164.007968 -8.599933 27.887035 2.465451 2.08211 1.885113 -151.997099 177.316921 -17.079745 140.143644 -172.909734 -2.396037 91.074317 -32.624309 -22.889274 -4.117451 -162.298289 -5.462327 111.422081 -175.92214 2.057673 124.261694 0.597897 -35.335288 0.860198 -76.065415 76.826384 88.759103 -139.89875 4.400295 177.467552 25.220464 34.376964 -7.971065 -16.582874 -40.482203 -13.815386 171.665303 62.795677 -121.91013 152.23749 10.640368 -155.503797 -9.721163 27.886568 2.634465 -164.835603 26.876422 142.103533 18.027548 38.829237 -5.412638 78.59808 34.274448 -47.205614 -145.176073 -51.576372 -48.128296 -37.887993 -32.52696 11.296042 -3.544269 -2.479953 -31.638783 12.568799 12.543458 -2.400868 -9.644636 32.545638 -11.803069 54.110361 71.28619 -91.764459 -157.947927 65.009249 155.222277 -6.48911 87.711518 -28.741599 -20.696415 34.713966 5.338336 -115.133768 61.319868 -34.193475 123.985143 19.865199 -102.902444 -75.998837 -22.492622 -176.312961 -86.172102 -56.917679 -172.577363 5.659445 -2.511864 -7.064146 16.045413 -31.392529 8.796616 -19.640146 52.498341 80.597831 33.278262 -50.562849 -48.234628
-90.9507 62.3611 -73.89099999999999 176.820179 4.787146 -173.892992 0.114602 -10.703847 178.088056 2.556995 0.431078 -158.770079 5.791687 -5.249978 -7.604226 5.080231 3.284679 48.49828 -18.674777 -2.414776 14.608576 16.923958 -1.895021 -12.686765 2.599928 -45.973144 -10.758979 24.931749 5.903378 -0.095743 -167.401718 -76.559588 36.865809 173.599413 -20.782782 139.507509 -8.874307 -0.036365 -1.774859 -32.273796 17.458311 33.180458 -90.877795 38.602258 58.351859 -19.465538 8.284436 18.945156 -10.826777 -7.39902 0.793221 11.949814 32.832474 5.028925 1.477716 -3.689072 1.365299 -160.070204 44.279757 167.694112 -138.029497 -19.705181 -140.410117 -156.860736 6.429221 -153.595955 32.262546 55.767978 -34.64019 135.119409 68.745225 -133.318959 -0.466056 2.188255 63.704916 -171.50969 -24.447371 -143.096551 -94.838267 -45.349334 -38.316867 31.555112 -40.787755 42.626619 30.60242 42.138418 -43.108538 68.441308 72.644612 -18.38176 167.476403 -20.968631 -145.167 -1.515857 -32.390029 0.910164 50.238253 71.598594 -88.497935 -79.217966 77.465714 82.978253 24.084386 -41.682701 16.083877 158.273902 13.04428 139.692268 167.669206 69.750904 9.599702 166.189615 36.045498 13.747741 49.626295 70.186861 -126.210189 85.693044 39.060005 3.039708 85.351003 35.322261 52.346589 -97.341228 13.323242 27.359148 55.381424 35.592118 65.082774 178.067742 25.76214 115.391872
-93.9173 62.294700000000006 -76.1498 175.846595 7.213287 -174.036193 0.174301 -6.748394 -24.664236 -1.110664 -7.09235 44.290667 3.291274 10.740429 -112.666009 7.589252 12.023785 154.36151 -16.56487 -2.910102 19.795919 16.199712 -1.907191 -13.341492 -151.712498 14.104266 157.631653 -31.445049 61.838257 25.962963 5.846677 -18.598055 -148.390233 174.057553 -14.783272 140.514216 -7.446083 -0.20051 -0.837714 -145.890747 -50.546373 117.870183 173.215707 -37.590461 117.602282 -170.805462 -6.321985 133.634503 -171.520039 -3.094845 142.400552 -8.034958 -14.121085 -0.640127 -73.228431 -75.435841 -88.026241 -162.479245 -27.712569 173.788766 -147.760994 49.356796 -166.90761 -133.646344 18.579062 -160.545261 153.580367 8.825931 -156.721756 161.322029 -27.415126 175.74721 -175.493542 9.807869 -117.303906 -177.604194 -8.952781 -144.248625 -7.741587 -3.076439 -6.018327 28.518738 35.765284 -25.813233 140.086058 -39.487994 -121.309017 -109.61885 -73.336325 -10.469059 124.88327 50.321347 -116.485628 170.131695 -26.831551 -136.575184 73.475488 -73.930596 113.013799 149.659153 -25.396517 -157.49005 36.407841 -57.605506 29.280916 9.918096 13.055289 5.424305 -0.733939 4.612297 -0.187864 -18.679924 -37.33983 -29.135637 20.949086 85.289885 149.672419 94.562108 7.213669 -178.207945 -0.447374 -1.891963 -13.306391 21.23994 -28.099208 39.530004 2.561788 51.124134 -33.414363 84.29505 16.661253 -7.182507
